<svg xmlns="http://www.w3.org/2000/svg" viewBox="0 0 150 60"><defs><style>.cls-1{fill:#fbffff;opacity:0;}</style></defs><g id="Layer_2" data-name="Layer 2"><g id="Layer_1-2" data-name="Layer 1"><rect class="cls-1" width="150" height="60"/><g id="Symbols"><g id="Logo-_-Black" data-name="Logo-/-Black"><path id="Combined-Shape" d="M107.19,27.34c.57-1.59,3-2.35,4.48-2.35h.67v3.53a7.78,7.78,0,0,0-2.5.22,3,3,0,0,0-1.43,1,3.54,3.54,0,0,0-.68,2.35c0,.84,0,1.42,0,2.26v6.25h-3.85V25.16h3.34Zm-46.86,9.6c-2.77,2.7-5.14,4-9.06,4-6.53,0-11-4.55-11-11,0-6.6,5.11-10.92,11.11-10.92a11.91,11.91,0,0,1,9.08,4.18L57.64,25.9a8.55,8.55,0,0,0-6.4-3.06A7,7,0,0,0,44.13,30a6.9,6.9,0,0,0,7.2,7.17c2.58,0,4.32-1,6.29-3Zm16.54.58c-1.66,2.35-3.84,3.4-7.1,3.4a7.82,7.82,0,0,1-8.07-8.14,7.88,7.88,0,0,1,8-8.11c4.88,0,8.19,3.49,8.19,8.36,0,.35,0,.52,0,.88H65.46a4.12,4.12,0,0,0,4.33,3.57A5,5,0,0,0,73.62,36ZM74,30.86a4.49,4.49,0,0,0-8.4,0Zm5.85-11.73h3.86V40.52H79.87Zm21,18.39c-1.66,2.35-3.83,3.4-7.09,3.4a7.82,7.82,0,0,1-8.07-8.14,7.88,7.88,0,0,1,8-8.11c4.88,0,8.2,3.49,8.2,8.36,0,.35,0,.52,0,.88H89.44a4.11,4.11,0,0,0,4.32,3.57A5,5,0,0,0,97.6,36ZM98,30.86A4.18,4.18,0,0,0,93.76,28a4.23,4.23,0,0,0-4.16,2.91Z"/></g></g></g></g></svg>