<svg xmlns="http://www.w3.org/2000/svg" xmlns:xlink="http://www.w3.org/1999/xlink" viewBox="0 0 150 60"><defs><style>.cls-1{fill:none;}.cls-2{clip-path:url(#clip-path);}.cls-3{fill:#212121;}.cls-4{fill:#8247e5;}.cls-5{fill:#fff;opacity:0;}</style><clipPath id="clip-path"><rect class="cls-1" y="14.82" width="150" height="32.96"/></clipPath></defs><g id="Layer_2" data-name="Layer 2"><g id="Layer_1-2" data-name="Layer 1"><g class="cls-2"><path class="cls-3" d="M58.68,25.32a5.53,5.53,0,0,1,2.2,2.36,7.72,7.72,0,0,1,.85,3.68A6.77,6.77,0,0,1,60.81,35a5.25,5.25,0,0,1-2.48,2.29,7.92,7.92,0,0,1-3.68.84,5.86,5.86,0,0,1-2.2-.42,4.55,4.55,0,0,1-1.84-1.11v7.23h-4.1v-19h3.54l.35,1.53a8,8,0,0,1,5-1.88A5.69,5.69,0,0,1,58.68,25.32Zm-2.26,8.62a3.18,3.18,0,0,0,1.06-2.51,3.65,3.65,0,0,0-1-2.57,3.16,3.16,0,0,0-2.41-1,4,4,0,0,0-2,.48,3.27,3.27,0,0,0-1.35,1.4v3.12a2.94,2.94,0,0,0,1.14,1.46,3.63,3.63,0,0,0,2,.56A3.83,3.83,0,0,0,56.42,33.94Z"/><path class="cls-3" d="M64.13,27.75a6.62,6.62,0,0,1,2.62-2.37,8.71,8.71,0,0,1,3.83-.9,7.81,7.81,0,0,1,3.82.9A6.56,6.56,0,0,1,77,27.82a7,7,0,0,1,0,7A6.1,6.1,0,0,1,74.4,37.2a8.32,8.32,0,0,1-3.82.91,8.55,8.55,0,0,1-3.83-.84,6.12,6.12,0,0,1-2.62-2.36,7.5,7.5,0,0,1-.92-3.62A7.39,7.39,0,0,1,64.13,27.75Zm4.18,6a2.78,2.78,0,0,0,2.27,1,3,3,0,0,0,2.26-1,3.71,3.71,0,0,0,.85-2.51,3.58,3.58,0,0,0-.85-2.5,3,3,0,0,0-2.34-1,3.09,3.09,0,0,0-2.26,1,3.89,3.89,0,0,0-.85,2.57A3.55,3.55,0,0,0,68.31,33.8Z"/><path class="cls-3" d="M84.52,14.88V37.76h-4.1V14.88Z"/><path class="cls-3" d="M101.37,25.11,93,43.88h-4l3.12-6.75-6-12h4.67l3.4,7.51,3.4-7.51Z"/><path class="cls-3" d="M117.08,25.11V37.76A5.48,5.48,0,0,1,116,41a7.08,7.08,0,0,1-2.83,2.29,9,9,0,0,1-3.89.84,10.48,10.48,0,0,1-2.76-.35,14.2,14.2,0,0,1-1.92-.83,13.6,13.6,0,0,1-1.77-1.33l2.41-2.78A6.63,6.63,0,0,0,107,40.12a5.11,5.11,0,0,0,2.2.49,4.48,4.48,0,0,0,2.61-.76,2.52,2.52,0,0,0,1.07-2.16V35.88a4.63,4.63,0,0,1-1.84,1.6,6.64,6.64,0,0,1-3,.63,6,6,0,0,1-3.25-.91,6.69,6.69,0,0,1-2.41-2.43,7,7,0,0,1-.92-3.41,6.51,6.51,0,0,1,.92-3.47,7.1,7.1,0,0,1,2.48-2.51,5.85,5.85,0,0,1,3.18-.9,8.91,8.91,0,0,1,2.83.42,4.21,4.21,0,0,1,1.92,1.18l.42-1Zm-4.17,7.78V29.76a3.08,3.08,0,0,0-1.35-1.46,4.53,4.53,0,0,0-2.19-.55,3.78,3.78,0,0,0-2.55,1,3.17,3.17,0,0,0-1.06,2.5,3.59,3.59,0,0,0,3.61,3.62A4,4,0,0,0,112.91,32.89Z"/><path class="cls-3" d="M120.48,27.75a6.76,6.76,0,0,1,2.62-2.43,8.54,8.54,0,0,1,3.82-.91,7.75,7.75,0,0,1,3.83.91,6.45,6.45,0,0,1,2.54,2.43,7,7,0,0,1,.92,3.48,6.35,6.35,0,0,1-.92,3.47,5.67,5.67,0,0,1-2.54,2.44,8.48,8.48,0,0,1-3.83.9,8.64,8.64,0,0,1-3.82-.83,6.2,6.2,0,0,1-2.62-2.37,6.84,6.84,0,0,1-.92-3.68A6.54,6.54,0,0,1,120.48,27.75Zm4.11,6a2.74,2.74,0,0,0,2.26,1,3,3,0,0,0,2.27-1,3.75,3.75,0,0,0,.85-2.5,3.63,3.63,0,0,0-.85-2.51,3,3,0,0,0-2.27-1,3.08,3.08,0,0,0-2.26,1,3.43,3.43,0,0,0-.92,2.51A4.31,4.31,0,0,0,124.59,33.8Z"/><path class="cls-3" d="M148.73,25.52A3.56,3.56,0,0,1,150,28.23v9.53h-4.18v-8a1.73,1.73,0,0,0-1.91-1.87,2.54,2.54,0,0,0-2.26,1.32,6.12,6.12,0,0,0-.85,3.34v5.21h-4.11V25.11h3.75l.29,2a5.29,5.29,0,0,1,2-1.95,5.93,5.93,0,0,1,3-.69A4.51,4.51,0,0,1,148.73,25.52Z"/><path class="cls-4" d="M29,24.9a2.44,2.44,0,0,0-2.4,0L21,28.1l-3.75,2.08-5.52,3.2a2.46,2.46,0,0,1-2.41,0L5,30.88a2.4,2.4,0,0,1-1.21-2V23.92a2.25,2.25,0,0,1,1.21-2l4.31-2.44a2.51,2.51,0,0,1,2.41,0L16,21.91a2.38,2.38,0,0,1,1.2,2v3.2L21,25v-3.2a2.24,2.24,0,0,0-1.2-2l-8-4.59a2.51,2.51,0,0,0-2.41,0L1.2,19.75a2.24,2.24,0,0,0-1.2,2V31a2.23,2.23,0,0,0,1.2,2l8.14,4.59a2.46,2.46,0,0,0,2.41,0l5.52-3.13L21,32.34l5.53-3.13a2.44,2.44,0,0,1,2.4,0l4.32,2.43a2.39,2.39,0,0,1,1.2,2V38.6a2.23,2.23,0,0,1-1.2,2L29,43.12a2.49,2.49,0,0,1-2.4,0l-4.32-2.44a2.38,2.38,0,0,1-1.21-2v-3.2l-3.75,2.15v3.2a2.25,2.25,0,0,0,1.21,2l8.14,4.59a2.49,2.49,0,0,0,2.4,0l8.14-4.59a2.4,2.4,0,0,0,1.21-2V31.57a2.24,2.24,0,0,0-1.21-2Z"/></g><rect class="cls-5" width="150" height="60"/></g></g></svg>