<svg xmlns="http://www.w3.org/2000/svg" viewBox="0 0 150 60"><defs><style>.cls-1{fill:#fbffff;opacity:0;}.cls-2{fill:#0c3b95;}.cls-3{fill:#0e3ca5;}.cls-4{fill:#fff;}.cls-5{fill:#5493f7;}</style></defs><g id="Layer_2" data-name="Layer 2"><g id="Layer_1-2" data-name="Layer 1"><rect class="cls-1" width="150" height="60"/><path class="cls-2" d="M100.86,24a8.13,8.13,0,0,0-.88,0,5.69,5.69,0,0,0-1.27.13,6.46,6.46,0,0,0-3.57,2.14V24.36H90V40.92h5.11V34a17.27,17.27,0,0,1,.13-2.25,4.27,4.27,0,0,1,.6-1.75,3,3,0,0,1,1.31-1.14,5.48,5.48,0,0,1,2.32-.41,6.74,6.74,0,0,1,1.11.09,7.18,7.18,0,0,1,1.07.25V24.12A4,4,0,0,0,100.86,24Z"/><path class="cls-2" d="M114.54,24a8.4,8.4,0,0,0-.89,0,5.76,5.76,0,0,0-1.27.13,6.46,6.46,0,0,0-3.57,2.14V24.36H103.7V40.92h5.11V34a17.27,17.27,0,0,1,.13-2.25,4.59,4.59,0,0,1,.6-1.75,3,3,0,0,1,1.31-1.14,5.48,5.48,0,0,1,2.32-.41,6.57,6.57,0,0,1,1.11.09,7.18,7.18,0,0,1,1.07.25V24.12A4,4,0,0,0,114.54,24Z"/><path class="cls-3" d="M60.65,23.68H53.77V19H72.85v4.71H66V40.92H60.65Z"/><path class="cls-3" d="M87.21,38.06a8.16,8.16,0,0,1-3.1,2.42,9.2,9.2,0,0,1-3.88.85,10.37,10.37,0,0,1-3.59-.61A8.65,8.65,0,0,1,73.71,39a8.22,8.22,0,0,1-2-2.74,9.26,9.26,0,0,1,0-7.16,8.32,8.32,0,0,1,2-2.74,8.63,8.63,0,0,1,2.93-1.75A10.37,10.37,0,0,1,80.23,24a8.14,8.14,0,0,1,3.22.61,6.91,6.91,0,0,1,2.46,1.75,8.25,8.25,0,0,1,1.55,2.74A11.17,11.17,0,0,1,88,32.64v1.61H76.14a4.1,4.1,0,0,0,1.33,2.33,3.75,3.75,0,0,0,2.52.87,3.88,3.88,0,0,0,2.13-.56,5.8,5.8,0,0,0,1.52-1.45Zm-4.32-7.29A2.94,2.94,0,0,0,82,28.55a3,3,0,0,0-2.28-.92,3.71,3.71,0,0,0-2.61,1,3.21,3.21,0,0,0-1,2.17Z"/><path class="cls-3" d="M115.89,36.17v-.06c0-3.68,2.87-5.38,7-5.38a12.55,12.55,0,0,1,4.23.69v-.28c0-2-1.26-3.08-3.71-3.08a13.11,13.11,0,0,0-4.77.91l-1.22-3.65a15.66,15.66,0,0,1,6.7-1.35c2.68,0,4.61.69,5.83,1.89a7.23,7.23,0,0,1,1.87,5.37V41H127V39.19a6.73,6.73,0,0,1-5.22,2.13C118.57,41.33,115.89,39.51,115.89,36.17Zm11.25-1.1v-.28a.83.83,0,0,0-.58-.79,8,8,0,0,0-2.55-.41c-2.09,0-3.38.82-3.38,2.33V36c0,1.29,1.09,2.05,2.67,2.05C125.59,38,127.14,36.8,127.14,35.07Z"/><circle class="cls-4" cx="35.05" cy="30" r="15.44"/><g id="Symbol_terra"><path class="cls-3" d="M33,38c.79,2.93,3.64,5.17,5.08,5.08a13.46,13.46,0,0,0,8.4-6c2.3-3.85,1.52-7.56-1.61-7.64C43.76,29.61,31.51,32.44,33,38"/><path class="cls-3" d="M44.6,19.18h0a13.74,13.74,0,0,0-14.47-2.09,7,7,0,0,0-.87.43c-.19.1-.39.2-.57.31l0,0a6.31,6.31,0,0,0-1.45,1.37c-3.94,5.2,9.27,9,16.33,9C46.86,30.55,47.78,21.66,44.6,19.18Z"/><path class="cls-5" d="M30.93,19.29c-1.82,2.73-7.86,4.65-8.86,4.35h0c.05-.09.09-.16.13-.25a14.21,14.21,0,0,1,1.18-1.89,13.67,13.67,0,0,1,1.44-1.69,15.57,15.57,0,0,1,1.69-1.45c.37-.27.76-.53,1.15-.76a4.26,4.26,0,0,1,2-.53c2.7.05,1.29,2.21,1.28,2.23"/><path class="cls-5" d="M29.44,38.56a21.1,21.1,0,0,1-.18,4.53c-.15,0-.46,0-1.38-.48a12.56,12.56,0,0,1-1.38-.9,14.52,14.52,0,0,1-3.13-3.13,12.81,12.81,0,0,1-1.18-1.9,14.75,14.75,0,0,1-.88-2.08,15,15,0,0,1-.55-2.22,15.43,15.43,0,0,1,0-4.7,14.83,14.83,0,0,1,.55-2.23l.15-.43h0c1.05,1.38,2.25,2.64,3.28,4s2.32,3.51,2.59,4a14.21,14.21,0,0,1,2.11,5.52"/><path class="cls-5" d="M49.52,30a14.47,14.47,0,0,1-1,5.32c-1.7,1.83-13.2-2.68-13.31-2.73-1.57-.69-6.36-2.78-6.79-6.07-.62-4.74,9-8,13.21-8.17a5.18,5.18,0,0,1,3,.76,14.44,14.44,0,0,1,5,10.89"/><path class="cls-5" d="M41.74,42.87c-1.25.58-2.63.16-2.27-1.06.68-2.34,6.69-4.74,8-4.88.16,0,.23.1.16.23a14.7,14.7,0,0,1-5.91,5.71"/></g></g></g></svg>